<?xml version="1.0" encoding="utf-8"?>
<!-- Svg Vector Icons : http://www.onlinewebfonts.com/icon -->
<!DOCTYPE svg PUBLIC "-//W3C//DTD SVG 1.1//EN" "http://www.w3.org/Graphics/SVG/1.1/DTD/svg11.dtd">
<svg version="1.1" xmlns="http://www.w3.org/2000/svg" xmlns:xlink="http://www.w3.org/1999/xlink" x="0px" y="0px" viewBox="0 0 1000 1000" enable-background="new 0 0 1000 1000" xml:space="preserve">
<metadata> Svg Vector Icons : http://www.onlinewebfonts.com/icon </metadata>
<g><g transform="translate(0.000000,511.000000) scale(0.100000,-0.100000)"><path d="M4687.8,2380.9c-441.5-94.9-1020.6-462.8-1281.7-809.4c-289.6-386.9-458.1-695.4-519.8-966c-19-80.7-57-318.1-83.1-526.9c-71.2-560.1-111.6-773.8-156.6-821.2c-21.4-23.7-78.3-57-125.8-71.2c-121.1-42.8-643.2-35.6-987.4,11.9C1099-742.7,816.6-730.8,667-761.7C505.7-797.3,282.5-949.2,180.5-1094c-61.7-90.2-71.2-125.8-78.3-296.7c-11.9-251.6,23.7-372.6,140-500.8C444-2109.8,707.4-2162.1,1711.4-2181l723.9-11.9l522.2,85.4c643.2,104.4,985,142.4,1139.3,121c66.5-7.1,211.3-57,322.8-109.2c246.8-111.6,356-118.7,543.5-30.9c151.9,73.6,123.4,102.1-45.1,45.1c-192.3-64.1-275.3-52.2-500.8,61.7l-201.7,104.4l-379.8-2.4c-208.9-2.4-496.1-14.3-640.8-30.9c-142.4-14.2-356-38-474.7-49.8c-116.3-11.9-439.1-23.7-712.1-23.7c-693.1,0-1222.4,68.8-1459.7,189.9c-116.3,59.3-232.6,194.6-249.2,291.9c-23.7,116.3,64.1,327.5,178,429.6l94.9,85.4h339.4c185.2,0,465.2-11.9,621.9-26.1c156.7-14.2,446.2-26.1,640.8-26.1c306.2,0,394,9.5,629,64.1c282.5,66.5,652.7,87.8,873.4,49.8c102.1-19,102.1-19,59.3-66.5c-40.3-45.1-40.3-47.5,14.3-92.5c85.4-68.8,154.3-78.3,396.4-47.5c310.9,38,484.2,33.2,759.5-19c446.2-85.4,498.4-111.5,529.3-268.2c9.5-45.1,30.8-78.3,49.8-78.3c59.3,0,42.7,211.3-23.7,301.4l-54.6,73.6l111.6-14.2c61.7-9.5,156.7-42.7,213.6-76c104.4-61.7,204.1-78.3,204.1-33.2c0,14.3-28.5,61.7-61.7,106.8l-61.7,80.7h97.3c113.9,0,123.4,26.1,35.6,90.2c-64.1,45.1-64.1,45.1,538.8,59.3c531.7,14.3,626.6,9.5,811.7-28.5c113.9-23.7,206.5-40.3,206.5-35.6c0,4.8-33.2,26.1-73.6,45.1c-40.4,21.4-68.8,42.7-64.1,47.5c2.4,4.8,92.5-2.4,197-11.9s194.6-14.2,201.7-7.1c7.1,4.8-26.1,42.7-71.2,80.7l-83.1,66.5l64.1,2.4c78.3,0,137.7,21.4,137.7,49.8c0,11.9-80.7,21.4-178,21.4c-97.3,0-178,9.5-178,21.4c0,26.1,30.8,35.6,218.4,73.6c73.6,14.2,161.4,47.5,197,76c57,42.7,73.6,45.1,218.4,19c87.8-14.2,218.4-54.6,289.6-87.8c123.4-59.3,137.7-61.7,301.4-35.6c97.3,16.6,239.7,54.6,322.8,87.8c199.4,80.7,232.6,78.3,232.6-19c0-45.1-26.1-154.3-57-244.5c-30.8-90.2-64.1-185.2-73.6-211.3c-7.1-26.1,14.2,4.7,49.8,71.2c35.6,64.1,76,192.2,90.2,284.8c23.7,140,38,166.1,78.3,173.3c35.6,4.8,64.1-11.9,87.8-59.3l38-66.5l-14.2,61.7c-11.9,54.6-4.8,64.1,57,73.6c80.7,11.9,97.3-11.9,173.3-242.1c23.7-71.2,42.7-116.3,42.7-97.3c2.4,19-21.4,109.2-49.9,199.4c-52.2,161.4-52.2,163.8-7.1,189.9C9741-400.9,9900-220.5,9900-168.3c0,57-85.4,211.3-132.9,242.1c-23.7,14.2-16.6,47.5,26.1,142.4c33.2,66.5,57,149.5,57,182.8c-2.4,40.4-11.9,26.1-30.9-47.5c-33.2-121.1-78.3-213.6-104.4-213.6c-9.5,0-76,92.6-147.2,208.9c-71.2,113.9-166.2,246.9-208.9,294.3c-113.9,125.8-515.1,408.2-683.6,481.8l-144.8,61.7l-11.9,246.8c-14.2,275.3-71.2,432-206.5,588.6c-102.1,113.9-296.7,206.5-472.3,223.1c-130.5,11.9-149.5,7.1-227.9-54.6c-170.9-135.3-242.1-348.9-168.5-519.8c47.5-116.3,47.5-113.9-40.4-94.9c-140,30.8-337.1,147.2-517.4,306.2c-289.6,254-678.8,415.4-1198.6,500.8C5425.9,2423.6,4884.8,2423.6,4687.8,2380.9z"/><path d="M9468-906.4c-9.5-33.2-16.6-102.1-16.6-154.3l2.4-94.9l21.3,80.7c14.2,42.7,21.4,111.5,16.6,154.3C9484.6-849.5,9484.6-849.5,9468-906.4z"/><path d="M9714.9-930.2c0-33.2,4.8-45.1,11.9-28.5c4.8,14.3,4.8,42.7,0,59.3C9719.6-885.1,9714.9-896.9,9714.9-930.2z"/></g></g>
</svg>